<svg xmlns="http://www.w3.org/2000/svg" viewBox="0 0 64 64" role="img" aria-label="danbooru-search waifu search icon">
  <defs>
    <linearGradient id="bg" x1="8" y1="7" x2="56" y2="58" gradientUnits="userSpaceOnUse">
      <stop offset="0" stop-color="#ff7ab6"/>
      <stop offset=".52" stop-color="#7c6cff"/>
      <stop offset="1" stop-color="#23c7d9"/>
    </linearGradient>
    <linearGradient id="hair" x1="18" y1="15" x2="45" y2="48" gradientUnits="userSpaceOnUse">
      <stop offset="0" stop-color="#4b2b78"/>
      <stop offset=".55" stop-color="#2f235f"/>
      <stop offset="1" stop-color="#1b1839"/>
    </linearGradient>
    <linearGradient id="face" x1="24" y1="23" x2="41" y2="45" gradientUnits="userSpaceOnUse">
      <stop offset="0" stop-color="#ffe8d9"/>
      <stop offset="1" stop-color="#ffc3cf"/>
    </linearGradient>
    <filter id="softShadow" x="-20%" y="-20%" width="140%" height="140%">
      <feDropShadow dx="0" dy="3" stdDeviation="2.5" flood-color="#19113d" flood-opacity=".28"/>
    </filter>
  </defs>

  <rect width="64" height="64" rx="15" fill="url(#bg)"/>
  <path d="M12 13.5c9.2-7 27.8-8.3 38.2 1.2 7.8 7.2 7.8 22.8.2 31.4-9.2 10.3-27.3 11.7-38.7 1.1C2.1 38.2 3.4 20.1 12 13.5Z" fill="#fff" opacity=".16"/>
  <path d="M15 49.5c10.8 6.8 24.4 6.9 34.2-.7 1.5-1.2 3-2.6 4.2-4.1" fill="none" stroke="#fff" stroke-width="2" stroke-linecap="round" opacity=".24"/>

  <g filter="url(#softShadow)">
    <circle cx="34.5" cy="33.5" r="21" fill="#eefbff" opacity=".92"/>
    <path d="M51.7 49.8 58 56.1" fill="none" stroke="#172141" stroke-width="7" stroke-linecap="round"/>
    <path d="M51.7 49.8 58 56.1" fill="none" stroke="#ffffff" stroke-width="3.5" stroke-linecap="round"/>
    <circle cx="34.5" cy="33.5" r="20" fill="none" stroke="#172141" stroke-width="5"/>
    <circle cx="34.5" cy="33.5" r="20" fill="none" stroke="#ffffff" stroke-width="2.4" opacity=".95"/>
  </g>

  <clipPath id="lensClip">
    <circle cx="34.5" cy="33.5" r="17.2"/>
  </clipPath>

  <g clip-path="url(#lensClip)">
    <rect x="16" y="15" width="37" height="38" fill="#dff8ff"/>
    <path d="M19 34.6c.1-14 7.8-21.2 18.1-19.6 7 1.1 12.9 7.7 12.7 20.8-.1 7-2.6 12.7-7.2 15.8H26.7C21.9 48.2 18.9 42.2 19 34.6Z" fill="url(#hair)"/>
    <path d="M22.5 26.8c4.6-8.7 17.5-11.1 24.1-2.9 1.3 1.6 2.1 3.6 2.5 5.8-6.7-1-12-3.7-16.2-8.2-2.6 4-6.2 5.7-10.4 5.3Z" fill="#60388d"/>
    <path d="M25.5 32.3c.2-6.1 3.6-10.4 8.8-10.8 5.7-.4 9.6 4 9.7 10.9.1 7.4-3.9 13.2-9.3 13.3-5.3.1-9.4-5.7-9.2-13.4Z" fill="url(#face)"/>
    <path d="M26.1 31.4c-1.8-3.1-1.1-6.7 2.3-9.8 1.6 3.2 1.1 6.4-2.3 9.8Z" fill="#4b2b78"/>
    <path d="M31.8 22.1c3.6 4.7 8.4 7.3 14.3 7.8-1.3-6.2-6.6-9.9-14.3-7.8Z" fill="#4b2b78"/>
    <ellipse cx="30.8" cy="34.2" rx="1.7" ry="2.9" fill="#192044"/>
    <ellipse cx="39" cy="34.2" rx="1.7" ry="2.9" fill="#192044"/>
    <circle cx="31.4" cy="33.1" r=".55" fill="#fff"/>
    <circle cx="39.6" cy="33.1" r=".55" fill="#fff"/>
    <path d="M32.1 40c1.8 1.2 3.7 1.2 5.6 0" fill="none" stroke="#b66a84" stroke-width="1.5" stroke-linecap="round"/>
    <circle cx="28.1" cy="38.2" r="1.5" fill="#ff86ad" opacity=".58"/>
    <circle cx="41.6" cy="38.2" r="1.5" fill="#ff86ad" opacity=".58"/>
    <path d="M20.4 39.8c2.9 4.5 6.4 7.2 10.6 8.1-5.8.7-10.1-1.5-12.4-6.4.1-.7.9-1.4 1.8-1.7Z" fill="#201b42"/>
    <path d="M49 38.2c-2.6 5.2-6 8.5-10.3 9.7 6.4.5 10.7-2.3 12.7-7.7-.3-.9-1.2-1.7-2.4-2Z" fill="#201b42"/>
  </g>

  <path d="M14.7 17.6 17 21l3.8.7-2.7 2.8.5 3.8-3.5-1.7-3.4 1.8.5-3.9-2.8-2.7 3.8-.7 1.5-3.5Z" fill="#fff7a8"/>
  <path d="M50.3 12.8 51.4 15l2.4.4-1.7 1.7.3 2.4-2.1-1.1-2.2 1.1.4-2.4-1.8-1.7 2.4-.4 1.2-2.2Z" fill="#ffffff" opacity=".9"/>
</svg>
